<svg xmlns="http://www.w3.org/2000/svg" xmlns:xlink="http://www.w3.org/1999/xlink">
  <symbol id="github-icon">
    <path d="M12 .297c-6.63 0-12 5.373-12 12 0 5.303 3.438 9.8 8.205 11.385.6.113.82-.258.82-.577 0-.285-.01-1.04-.015-2.04-3.338.724-4.042-1.61-4.042-1.61C4.422 18.07 3.633 17.7 3.633 17.7c-1.087-.744.084-.729.084-.729 1.205.084 1.838 1.236 1.838 1.236 1.07 1.835 2.809 1.305 3.495.998.108-.776.417-1.305.76-1.605-2.665-.3-5.466-1.332-5.466-5.93 0-1.31.465-2.38 1.235-3.22-.135-.303-.54-1.523.105-3.176 0 0 1.005-.322 3.3 1.23.96-.267 1.98-.399 3-.405 1.02.006 2.04.138 3 .405 2.28-1.552 3.285-1.23 3.285-1.23.645 1.653.24 2.873.12 3.176.765.84 1.23 1.91 1.23 3.22 0 4.61-2.805 5.625-5.475 5.92.42.36.81 1.096.81 2.22 0 1.606-.015 2.896-.015 3.286 0 .315.21.69.825.57C20.565 22.092 24 17.592 24 12.297c0-6.627-5.373-12-12-12"></path>
  </symbol>
  <symbol id="linkedin-icon">
    <path d="M20.447 20.452h-3.554v-5.569c0-1.328-.027-3.037-1.852-3.037-1.853 0-2.136 1.445-2.136 2.939v5.667H9.351V9h3.414v1.561h.046c.477-.9 1.637-1.85 3.37-1.85 3.601 0 4.267 2.37 4.267 5.455v6.286zM5.337 7.433c-1.144 0-2.063-.926-2.063-2.065 0-1.138.92-2.063 2.063-2.063 1.14 0 2.064.925 2.064 2.063 0 1.139-.925 2.065-2.064 2.065zm1.782 13.019H3.555V9h3.564v11.452zM22.225 0H1.771C.792 0 0 .774 0 1.729v20.542C0 23.227.792 24 1.771 24h20.451C23.2 24 24 23.227 24 22.271V1.729C24 .774 23.2 0 22.222 0h.003z"></path>
  </symbol>
  <symbol id="twitter-icon">
    <path d="M23.954 4.569c-.885.389-1.83.654-2.825.775 1.014-.611 1.794-1.574 2.163-2.723-.951.555-2.005.959-3.127 1.184-.896-.959-2.173-1.559-3.591-1.559-2.717 0-4.92 2.203-4.92 4.917 0 .39.045.765.127 1.124C7.691 8.094 4.066 6.13 1.64 3.161c-.427.722-.666 1.561-.666 2.475 0 1.71.87 3.213 2.188 4.096-.807-.026-1.566-.248-2.228-.616v.061c0 2.385 1.693 4.374 3.946 4.827-.413.111-.849.171-1.296.171-.314 0-.615-.03-.916-.086.631 1.953 2.445 3.377 4.604 3.417-1.68 1.319-3.809 2.105-6.102 2.105-.39 0-.779-.023-1.17-.067 2.189 1.394 4.768 2.209 7.557 2.209 9.054 0 13.999-7.496 13.999-13.986 0-.209 0-.42-.015-.63.961-.689 1.8-1.56 2.46-2.548l-.047-.02z"></path>
  </symbol>
  <symbol id="wordpress-icon">
    <path d="M21.469 6.825c.84 1.537 1.318 3.3 1.318 5.175 0 3.979-2.156 7.456-5.363 9.325l3.295-9.527c.615-1.54.82-2.771.82-3.864 0-.405-.026-.78-.07-1.11m-7.981.105c.647-.03 1.232-.105 1.232-.105.582-.075.514-.93-.067-.899 0 0-1.755.135-2.88.135-1.064 0-2.85-.15-2.85-.15-.585-.03-.661.855-.075.885 0 0 .54.061 1.125.09l1.68 4.605-2.37 7.08L5.354 6.9c.649-.03 1.234-.1 1.234-.1.585-.075.516-.93-.065-.896 0 0-1.746.138-2.874.138-.2 0-.438-.008-.69-.015C4.911 3.15 8.235 1.215 12 1.215c2.809 0 5.365 1.072 7.286 2.833-.046-.003-.091-.009-.141-.009-1.06 0-1.812.923-1.812 1.914 0 .89.513 1.643 1.06 2.531.411.72.89 1.643.89 2.977 0 .915-.354 1.994-.821 3.479l-1.075 3.585-3.9-11.61.001.014zM12 22.784c-1.059 0-2.081-.153-3.048-.437l3.237-9.406 3.315 9.087c.024.053.05.101.078.149-1.12.393-2.325.609-3.582.609M1.211 12c0-1.564.336-3.05.935-4.39L7.29 21.709C3.694 19.96 1.212 16.271 1.211 12M12 0C5.385 0 0 5.385 0 12s5.385 12 12 12 12-5.385 12-12S18.615 0 12 0"></path>
  </symbol>
  <symbol id="html-icon">
    <path d="M1.5 0h21l-1.91 21.563L11.977 24l-8.564-2.438L1.5 0zm7.031 9.75l-.232-2.718 10.059.003.23-2.622L5.412 4.41l.698 8.01h9.126l-.326 3.426-2.91.804-2.955-.81-.188-2.11H6.248l.33 4.171L12 19.351l5.379-1.443.744-8.157H8.531z"></path>
  </symbol>
  <symbol id="css-icon">
    <path d="M1.5 0h21l-1.91 21.563L11.977 24l-8.565-2.438L1.5 0zm17.09 4.413L5.41 4.41l.213 2.622 10.125.002-.255 2.716h-6.64l.24 2.573h6.182l-.366 3.523-2.91.804-2.956-.81-.188-2.11h-2.61l.29 3.855L12 19.288l5.373-1.53L18.59 4.414z"></path>
  </symbol>
  <symbol id="javascript-icon">
    <path d="M0 0h24v24H0V0zm22.034 18.276c-.175-1.095-.888-2.015-3.003-2.873-.736-.345-1.554-.585-1.797-1.14-.091-.33-.105-.51-.046-.705.15-.646.915-.84 1.515-.66.39.12.75.42.976.9 1.034-.676 1.034-.676 1.755-1.125-.27-.42-.404-.601-.586-.78-.63-.705-1.469-1.065-2.834-1.034l-.705.089c-.676.165-1.32.525-1.71 1.005-1.14 1.291-.811 3.541.569 4.471 1.365 1.02 3.361 1.244 3.616 2.205.24 1.17-.87 1.545-1.966 1.41-.811-.18-1.26-.586-1.755-1.336l-1.83 1.051c.21.48.45.689.81 1.109 1.74 1.756 6.09 1.666 6.871-1.004.029-.09.24-.705.074-1.65l.046.067zm-8.983-7.245h-2.248c0 1.938-.009 3.864-.009 5.805 0 1.232.063 2.363-.138 2.711-.33.689-1.18.601-1.566.48-.396-.196-.597-.466-.83-.855-.063-.105-.11-.196-.127-.196l-1.825 1.125c.305.63.75 1.172 1.324 1.517.855.51 2.004.675 3.207.405.783-.226 1.458-.691 1.811-1.411.51-.93.402-2.07.397-3.346.012-2.054 0-4.109 0-6.179l.004-.056z"></path>
  </symbol>
  <symbol id="node-icon">
    <path d="M11.998,24c-0.321,0-0.641-0.084-0.922-0.247l-2.936-1.737c-0.438-0.245-0.224-0.332-0.08-0.383 c0.585-0.203,0.703-0.25,1.328-0.604c0.065-0.037,0.151-0.023,0.218,0.017l2.256,1.339c0.082,0.045,0.197,0.045,0.272,0l8.795-5.076 c0.082-0.047,0.134-0.141,0.134-0.238V6.921c0-0.099-0.053-0.192-0.137-0.242l-8.791-5.072c-0.081-0.047-0.189-0.047-0.271,0 L3.075,6.68C2.99,6.729,2.936,6.825,2.936,6.921v10.15c0,0.097,0.054,0.189,0.139,0.235l2.409,1.392 c1.307,0.654,2.108-0.116,2.108-0.89V7.787c0-0.142,0.114-0.253,0.256-0.253h1.115c0.139,0,0.255,0.112,0.255,0.253v10.021 c0,1.745-0.95,2.745-2.604,2.745c-0.508,0-0.909,0-2.026-0.551L2.28,18.675c-0.57-0.329-0.922-0.945-0.922-1.604V6.921 c0-0.659,0.353-1.275,0.922-1.603l8.795-5.082c0.557-0.315,1.296-0.315,1.848,0l8.794,5.082c0.57,0.329,0.924,0.944,0.924,1.603 v10.15c0,0.659-0.354,1.273-0.924,1.604l-8.794,5.078C12.643,23.916,12.324,24,11.998,24z M19.099,13.993 c0-1.9-1.284-2.406-3.987-2.763c-2.731-0.361-3.009-0.548-3.009-1.187c0-0.528,0.235-1.233,2.258-1.233 c1.807,0,2.473,0.389,2.747,1.607c0.024,0.115,0.129,0.199,0.247,0.199h1.141c0.071,0,0.138-0.031,0.186-0.081 c0.048-0.054,0.074-0.123,0.067-0.196c-0.177-2.098-1.571-3.076-4.388-3.076c-2.508,0-4.004,1.058-4.004,2.833 c0,1.925,1.488,2.457,3.895,2.695c2.88,0.282,3.103,0.703,3.103,1.269c0,0.983-0.789,1.402-2.642,1.402 c-2.327,0-2.839-0.584-3.011-1.742c-0.02-0.124-0.126-0.215-0.253-0.215h-1.137c-0.141,0-0.254,0.112-0.254,0.253 c0,1.482,0.806,3.248,4.655,3.248C17.501,17.007,19.099,15.91,19.099,13.993z"></path>
  </symbol>
  <symbol id="express-icon">
    <path d="M24 18.588C23.6507 18.7201 23.2651 18.7198 22.916 18.5872C22.5669 18.4546 22.2785 18.1988 22.105 17.868L18.655 13.097L18.155 12.43L14.152 17.874C13.989 18.1909 13.7162 18.4375 13.3845 18.5678C13.0529 18.6981 12.6851 18.7032 12.35 18.582L17.508 11.662L12.71 5.41102C13.055 5.2867 13.4323 5.28505 13.7784 5.40636C14.1244 5.52766 14.4181 5.76451 14.61 6.07702L18.186 10.907L21.782 6.09702C21.9463 5.78581 22.2192 5.54581 22.5488 5.42265C22.8785 5.29949 23.2419 5.30176 23.57 5.42902L21.708 7.90002L19.186 11.183C19.116 11.2455 19.0599 11.3221 19.0216 11.4077C18.9832 11.4934 18.9633 11.5862 18.9633 11.68C18.9633 11.7739 18.9832 11.8667 19.0216 11.9523C19.0599 12.038 19.116 12.1145 19.186 12.177L23.99 18.589L24 18.588ZM0.002012 11.576L0.422012 9.50102C1.57601 5.39802 6.28001 3.69102 9.51601 6.23102C11.411 7.72002 11.884 9.82802 11.791 12.204H1.11601C0.943012 16.447 4.00501 19.009 7.92001 17.7C8.55467 17.4716 9.12275 17.0893 9.57337 16.5873C10.024 16.0854 10.3431 15.4796 10.502 14.824C10.709 14.158 11.05 14.044 11.676 14.236C11.5717 15.0484 11.2845 15.8266 10.8361 16.5119C10.3876 17.1973 9.78963 17.7721 9.08701 18.193C7.92643 18.8279 6.59484 19.0795 5.28264 18.9119C3.97043 18.7443 2.74481 18.1661 1.78101 17.26C0.828041 16.1874 0.252088 14.8325 0.141012 13.402C0.141012 13.167 0.061012 12.947 0.007012 12.736C0.00214403 12.3497 -0.000189357 11.9634 1.19963e-05 11.577L0.002012 11.576ZM1.12901 11.29H10.783C10.723 8.21402 8.78201 6.03202 6.19301 6.01202C3.31101 5.97202 1.24901 8.10602 1.12201 11.276L1.12901 11.29Z"/>
  </symbol>
  <symbol id="postgresql-icon">
    <path d="M17.128 0a10.134 10.134 0 0 0-2.755.403l-.063.02A10.922 10.922 0 0 0 12.6.258C11.422.238 10.41.524 9.594 1 8.79.721 7.122.24 5.364.336 4.14.403 2.804.775 1.814 1.82.827 2.865.305 4.482.415 6.682c.03.607.203 1.597.49 2.879s.69 2.783 1.193 4.152c.503 1.37 1.054 2.6 1.915 3.436.43.419 1.022.771 1.72.742.49-.02.933-.235 1.315-.552.186.245.385.352.566.451.228.125.45.21.68.266.413.103 1.12.241 1.948.1.282-.047.579-.139.875-.27.011.33.024.653.037.98.041 1.036.067 1.993.378 2.832.05.137.187.843.727 1.466.54.624 1.598 1.013 2.803.755.85-.182 1.931-.51 2.649-1.532.71-1.01 1.03-2.459 1.093-4.809.016-.127.035-.235.055-.336l.169.015h.02c.907.041 1.891-.088 2.713-.47.728-.337 1.279-.678 1.68-1.283.1-.15.21-.331.24-.643s-.149-.8-.446-1.025c-.595-.452-.969-.28-1.37-.197a6.27 6.27 0 0 1-1.202.146c1.156-1.947 1.985-4.015 2.458-5.845.28-1.08.437-2.076.45-2.947.013-.871-.058-1.642-.58-2.309C21.36.6 19.067.024 17.293.004c-.055-.001-.11-.002-.165-.001zm-.047.64c1.678-.016 3.822.455 5.361 2.422.346.442.449 1.088.437 1.884-.013.795-.16 1.747-.429 2.79-.522 2.02-1.508 4.375-2.897 6.488a.756.756 0 0 0 .158.086c.29.12.951.223 2.27-.048.332-.07.575-.117.827.075a.52.52 0 0 1 .183.425.704.704 0 0 1-.13.336c-.255.383-.758.746-1.403 1.045-.571.266-1.39.405-2.116.413-.364.004-.7-.024-.985-.113l-.018-.007c-.11 1.06-.363 3.153-.528 4.108-.132.77-.363 1.382-.804 1.84-.44.458-1.063.734-1.901.914-1.038.223-1.795-.017-2.283-.428-.487-.41-.71-.954-.844-1.287-.092-.23-.14-.528-.186-.926-.046-.398-.08-.885-.103-1.434a51.426 51.426 0 0 1-.03-2.523 3.061 3.061 0 0 1-1.552.76c-.689.117-1.304.002-1.671-.09a2.276 2.276 0 0 1-.52-.201c-.17-.091-.332-.194-.44-.397a.56.56 0 0 1-.057-.381.61.61 0 0 1 .218-.331c.198-.161.46-.251.855-.333.719-.148.97-.249 1.123-.37.13-.104.277-.314.537-.622a1.16 1.16 0 0 1-.003-.041 2.96 2.96 0 0 1-1.33-.358c-.15.158-.916.968-1.85 2.092-.393.47-.827.74-1.285.759-.458.02-.872-.211-1.224-.552-.703-.683-1.264-1.858-1.753-3.186-.488-1.328-.885-2.807-1.167-4.067-.283-1.26-.45-2.276-.474-2.766-.105-2.082.382-3.485 1.217-4.37.836-.885 1.982-1.22 3.099-1.284 2.005-.115 3.909.584 4.294.734.742-.504 1.698-.818 2.892-.798a7.39 7.39 0 0 1 1.681.218l.02-.009a6.854 6.854 0 0 1 .739-.214A9.626 9.626 0 0 1 17.08.642zm.152.67h-.146a8.74 8.74 0 0 0-1.704.192c1.246.552 2.187 1.402 2.85 2.25a8.44 8.44 0 0 1 1.132 1.92c.11.264.184.487.226.66.021.087.035.16.04.236.002.038.004.077-.012.144 0 .003-.005.01-.006.013.03.876-.187 1.47-.213 2.306-.02.606.135 1.318.173 2.095.036.73-.052 1.532-.526 2.319.04.048.076.096.114.144 1.254-1.975 2.158-4.16 2.64-6.023.258-1.003.395-1.912.407-2.632.01-.72-.124-1.242-.295-1.46-1.342-1.716-3.158-2.153-4.68-2.165zm-4.79.256c-1.182.003-2.03.36-2.673.895-.663.553-1.108 1.31-1.4 2.085-.347.92-.466 1.81-.513 2.414l.013-.008c.357-.2.826-.4 1.328-.516.502-.115 1.043-.151 1.533.039s.895.637 1.042 1.315c.704 3.257-.219 4.468-.559 5.382a9.61 9.61 0 0 0-.331 1.013c.043-.01.086-.022.129-.026.24-.02.428.06.54.108.342.142.577.44.704.78.033.089.057.185.071.284a.336.336 0 0 1 .02.127 55.14 55.14 0 0 0 .013 3.738c.023.538.057 1.012.1 1.386.043.373.104.657.143.753.128.32.315.739.653 1.024.338.284.823.474 1.709.284.768-.165 1.242-.394 1.559-.723.316-.329.505-.787.626-1.488.181-1.05.545-4.095.589-4.668-.02-.432.044-.764.182-1.017.142-.26.362-.419.552-.505.095-.043.184-.072.257-.093a5.956 5.956 0 0 0-.243-.325 4.456 4.456 0 0 1-.666-1.099 8.296 8.296 0 0 0-.257-.483c-.133-.24-.301-.54-.477-.877-.352-.675-.735-1.493-.934-2.29-.198-.796-.227-1.62.281-2.201.45-.516 1.24-.73 2.426-.61-.035-.105-.056-.192-.115-.332a7.817 7.817 0 0 0-1.041-1.764c-1.005-1.285-2.632-2.559-5.146-2.6h-.115zm-6.642.052c-.127 0-.254.004-.38.011-1.01.058-1.965.351-2.648 1.075-.684.724-1.134 1.911-1.036 3.876.019.372.181 1.414.459 2.652.277 1.238.67 2.695 1.142 3.982.473 1.287 1.046 2.407 1.59 2.937.274.265.512.372.728.363.217-.01.478-.135.797-.518a43.244 43.244 0 0 1 1.81-2.048 3.497 3.497 0 0 1-1.167-3.15c.103-.739.117-1.43.105-1.976-.012-.532-.05-.886-.05-1.107a.336.336 0 0 1 0-.019v-.005l-.001-.006v-.001a9.893 9.893 0 0 1 .592-3.376c.28-.744.697-1.5 1.322-2.112-.614-.202-1.704-.51-2.884-.568a7.603 7.603 0 0 0-.38-.01zM18.199 6.9c-.679.009-1.06.184-1.26.413-.283.325-.31.895-.134 1.597.175.703.537 1.489.877 2.142.17.327.335.621.468.86.134.24.232.41.292.555.055.134.116.252.178.362.263-.555.31-1.1.283-1.668-.035-.703-.198-1.422-.174-2.15.027-.851.195-1.405.21-2.063a5.793 5.793 0 0 0-.74-.048zm-8.234.115a2.82 2.82 0 0 0-.616.074 4.665 4.665 0 0 0-1.153.449 2.417 2.417 0 0 0-.349.228l-.022.02c.006.146.035.5.047 1.021.012.57-.002 1.297-.112 2.084-.239 1.71 1.002 3.126 2.46 3.128.085-.351.225-.707.365-1.082.406-1.094 1.205-1.892.532-5.006-.11-.51-.328-.716-.628-.832a1.474 1.474 0 0 0-.524-.084zm7.917.204h.05c.066.002.127.009.18.022.054.012.1.03.138.055a.164.164 0 0 1 .075.11l-.001.008h.001-.001a.24.24 0 0 1-.035.135.668.668 0 0 1-.11.15.677.677 0 0 1-.386.212.59.59 0 0 1-.41-.103.608.608 0 0 1-.13-.118.26.26 0 0 1-.063-.127.17.17 0 0 1 .042-.128.384.384 0 0 1 .117-.09c.096-.054.226-.094.373-.116.055-.008.109-.012.16-.013zm-7.82.168c.053 0 .109.005.166.013.153.021.289.062.393.122a.446.446 0 0 1 .133.106.223.223 0 0 1 .054.17.302.302 0 0 1-.075.154.649.649 0 0 1-.143.13.64.64 0 0 1-.448.113.728.728 0 0 1-.42-.228.71.71 0 0 1-.118-.164.28.28 0 0 1-.041-.177c.015-.108.104-.164.191-.195a.866.866 0 0 1 .307-.04zm9.06 7.343l-.003.001c-.147.053-.268.075-.37.12a.452.452 0 0 0-.239.214c-.063.115-.117.319-.101.666a.51.51 0 0 0 .148.07c.171.052.458.086.778.081.638-.007 1.423-.156 1.84-.35a3.95 3.95 0 0 0 .943-.615h-.001c-1.393.288-2.18.211-2.663.012a1.315 1.315 0 0 1-.332-.2zm-8.031.094h-.021c-.053.005-.13.023-.279.188-.348.39-.47.635-.757.864-.287.228-.66.35-1.405.503-.236.048-.371.101-.461.144.029.024.026.03.07.053.109.06.249.113.362.142.32.08.846.173 1.395.08.549-.094 1.12-.357 1.607-1.04.084-.118.093-.292.024-.479-.07-.187-.223-.348-.331-.393a.653.653 0 0 0-.204-.06z"></path>
  </symbol>
  <symbol id="react-icon">
    <path d="M12 9.861A2.139 2.139 0 1 0 12 14.139 2.139 2.139 0 1 0 12 9.861zM6.008 16.255l-.472-.12C2.018 15.246 0 13.737 0 11.996s2.018-3.25 5.536-4.139l.472-.119.133.468a23.53 23.53 0 0 0 1.363 3.578l.101.213-.101.213a23.307 23.307 0 0 0-1.363 3.578l-.133.467zM5.317 8.95c-2.674.751-4.315 1.9-4.315 3.046 0 1.145 1.641 2.294 4.315 3.046a24.95 24.95 0 0 1 1.182-3.046A24.752 24.752 0 0 1 5.317 8.95zM17.992 16.255l-.133-.469a23.357 23.357 0 0 0-1.364-3.577l-.101-.213.101-.213a23.42 23.42 0 0 0 1.364-3.578l.133-.468.473.119c3.517.889 5.535 2.398 5.535 4.14s-2.018 3.25-5.535 4.139l-.473.12zm-.491-4.259c.48 1.039.877 2.06 1.182 3.046 2.675-.752 4.315-1.901 4.315-3.046 0-1.146-1.641-2.294-4.315-3.046a24.788 24.788 0 0 1-1.182 3.046zM5.31 8.945l-.133-.467C4.188 4.992 4.488 2.494 6 1.622c1.483-.856 3.864.155 6.359 2.716l.34.349-.34.349a23.552 23.552 0 0 0-2.422 2.967l-.135.193-.235.02a23.657 23.657 0 0 0-3.785.61l-.472.119zm1.896-6.63c-.268 0-.505.058-.705.173-.994.573-1.17 2.565-.485 5.253a25.122 25.122 0 0 1 3.233-.501 24.847 24.847 0 0 1 2.052-2.544c-1.56-1.519-3.037-2.381-4.095-2.381zM16.795 22.677c-.001 0-.001 0 0 0-1.425 0-3.255-1.073-5.154-3.023l-.34-.349.34-.349a23.53 23.53 0 0 0 2.421-2.968l.135-.193.234-.02a23.63 23.63 0 0 0 3.787-.609l.472-.119.134.468c.987 3.484.688 5.983-.824 6.854a2.38 2.38 0 0 1-1.205.308zm-4.096-3.381c1.56 1.519 3.037 2.381 4.095 2.381h.001c.267 0 .505-.058.704-.173.994-.573 1.171-2.566.485-5.254a25.02 25.02 0 0 1-3.234.501 24.674 24.674 0 0 1-2.051 2.545zM18.69 8.945l-.472-.119a23.479 23.479 0 0 0-3.787-.61l-.234-.02-.135-.193a23.414 23.414 0 0 0-2.421-2.967l-.34-.349.34-.349C14.135 1.778 16.515.767 18 1.622c1.512.872 1.812 3.37.824 6.855l-.134.468zM14.75 7.24c1.142.104 2.227.273 3.234.501.686-2.688.509-4.68-.485-5.253-.988-.571-2.845.304-4.8 2.208A24.849 24.849 0 0 1 14.75 7.24zM7.206 22.677A2.38 2.38 0 0 1 6 22.369c-1.512-.871-1.812-3.369-.823-6.854l.132-.468.472.119c1.155.291 2.429.496 3.785.609l.235.02.134.193a23.596 23.596 0 0 0 2.422 2.968l.34.349-.34.349c-1.898 1.95-3.728 3.023-5.151 3.023zm-1.19-6.427c-.686 2.688-.509 4.681.485 5.254.987.563 2.843-.305 4.8-2.208a24.998 24.998 0 0 1-2.052-2.545 24.976 24.976 0 0 1-3.233-.501zM12 16.878c-.823 0-1.669-.036-2.516-.106l-.235-.02-.135-.193a30.388 30.388 0 0 1-1.35-2.122 30.354 30.354 0 0 1-1.166-2.228l-.1-.213.1-.213a30.3 30.3 0 0 1 1.166-2.228c.414-.716.869-1.43 1.35-2.122l.135-.193.235-.02a29.785 29.785 0 0 1 5.033 0l.234.02.134.193a30.006 30.006 0 0 1 2.517 4.35l.101.213-.101.213a29.6 29.6 0 0 1-2.517 4.35l-.134.193-.234.02c-.847.07-1.694.106-2.517.106zm-2.197-1.084c1.48.111 2.914.111 4.395 0a29.006 29.006 0 0 0 2.196-3.798 28.585 28.585 0 0 0-2.197-3.798 29.031 29.031 0 0 0-4.394 0 28.477 28.477 0 0 0-2.197 3.798 29.114 29.114 0 0 0 2.197 3.798z"></path>
  </symbol>
  <symbol id="materialui-icon">
    <path d="M0 2.475v10.39l3 1.733V7.67l6 3.465 6-3.465v3.465l-6 3.463v3.464l6 3.463 9-5.195V9.402l-3 1.733v3.463l-6 3.464-3-1.732 6-3.465V2.475L9 7.67 0 2.475zm24 0l-3 1.73V7.67l3-1.732V2.474Z"></path>
  </symbol>
  <symbol id="styled-components-icon">
    <path d="M16.214 6.762l-.075.391c-.116.741-.074.953.244 1.228l.307.254-.318 1.418c-.19.846-.423 1.555-.571 1.788-.127.201-.275.497-.307.656-.053.19-.233.381-.508.55-.243.138-.72.508-1.058.805-.27.243-.456.392-.557.456l-.33.261c-.106.17-.166.307-.189.411-.023.107-.01.178.024.23.033.05.09.085.168.107a.954.954 0 00.282.023 3 3 0 00.632-.112c.07-.019.125-.037.173-.053.074-.091.245-.263.548-.562.804-.793 1.111-1.227.794-1.11-.117.042-.064-.064.137-.276.424-.413.667-1.037 1.175-2.994.402-1.545.402-1.567.698-1.567.139 0 .532.024.532.024V6.762h-.902zm3.839 3.165c-.064 0-.17.096-.233.202-.116.19.021.306 1.767 1.396 1.037.657 1.873 1.217 1.852 1.26-.021.031-.868.582-1.883 1.217-1.842 1.142-1.852 1.153-1.683 1.386.212.275 0 .37 2.391-1.122L24 13.155v-.836l-1.937-1.196c-1.047-.656-1.957-1.185-2.01-1.196zm-16.085.117c-.053 0-.963.54-2.01 1.185L0 12.425v.836l1.947 1.217c1.08.666 1.99 1.217 2.032 1.217.042 0 .127-.096.212-.212.127-.201.02-.286-1.768-1.418C.72 12.996.54 12.848.71 12.732c.106-.074.91-.572 1.778-1.111 1.979-1.217 1.873-1.133 1.714-1.387-.063-.105-.17-.2-.233-.19zm8.684.023c-.292-.002-.92.443-2.8 1.978-.081.193-.088.326-.051.412.024.059.068.1.129.13.06.03.138.048.224.055.171.015.373-.012.536-.044l.11-.025a.386.386 0 01.144-.118c.116-.064.603-.508 1.09-.984.857-.868 1.058-1.26.709-1.387a.24.24 0 00-.09-.017zm2.196.603c-.257.007-.72.305-1.513.938-.398.323-.65.497-.785.533l-.524.414c-.197.36-.226.583-.174.706a.25.25 0 00.138.134.644.644 0 00.24.045 2.18 2.18 0 00.58-.085 3.466 3.466 0 00.291-.092l.029-.012.053-.028c.1-.129.33-.372.618-.652.91-.878 1.375-1.502 1.28-1.735-.043-.113-.117-.17-.233-.166zm-2.424 1.08c-.074.008-.24.136-.539.398-.432.382-.903.602-1.066.504a3.97 3.97 0 01-.114.024c-.166.033-.373.06-.558.045a.708.708 0 01-.252-.063.337.337 0 01-.168-.17c-.037-.09-.037-.202.005-.345l-.65.534-1.471 1.217V15.867l4.82-3.797a.41.41 0 01.016-.123c.037-.134.035-.202-.023-.196zm2.074.639c-.073 0-.195.103-.39.31-.265.283-.682.557-.903.613l-.034.018a2.191 2.191 0 01-.11.042c-.06.02-.138.044-.228.068-.18.049-.404.094-.604.089a.732.732 0 01-.275-.054.344.344 0 01-.184-.18c-.058-.139-.035-.334.092-.611L7.61 16.033v1.205h1.868l3.962-3.112c.103-.114.258-.27.467-.465.56-.519.687-.698.687-.963 0-.206-.023-.31-.096-.31zm.943 1.95l-.339.338c-.19.18-.529.402-.761.497l-.046.02-.003.005-.01.01c-.009.007-.013.008-.02.011a3.432 3.432 0 01-.282.093 3.058 3.058 0 01-.65.115 1.035 1.035 0 01-.31-.027.364.364 0 01-.218-.144c-.048-.074-.062-.173-.035-.295a1.11 1.11 0 01.095-.25l-3.197 2.526h4.252l.508-.582c.698-.814 1.016-1.396 1.016-1.894z"></path>
  </symbol>
  <symbol id="jest-icon">
    <path d="M22.251 11.82a3.117 3.117 0 0 0-2.328-3.01L22.911 0H8.104L11.1 8.838a3.116 3.116 0 0 0-2.244 2.988c0 1.043.52 1.967 1.313 2.536a8.279 8.279 0 0 1-1.084 1.244 8.14 8.14 0 0 1-2.55 1.647c-.834-.563-1.195-1.556-.869-2.446a3.11 3.11 0 0 0-.91-6.08 3.117 3.117 0 0 0-3.113 3.113c0 .848.347 1.626.903 2.182-.048.097-.097.195-.146.299-.465.959-.993 2.043-1.195 3.259-.403 2.432.257 4.384 1.849 5.489A5.093 5.093 0 0 0 5.999 24c1.827 0 3.682-.917 5.475-1.807 1.279-.632 2.599-1.292 3.898-1.612.48-.118.98-.187 1.508-.264 1.07-.153 2.175-.312 3.168-.89a4.482 4.482 0 0 0 2.182-3.091c.174-.994 0-1.994-.444-2.87.298-.48.465-1.042.465-1.647zm-1.355 0c0 .965-.785 1.75-1.75 1.75a1.753 1.753 0 0 1-1.085-3.126l.007-.007c.056-.042.118-.084.18-.125 0 0 .008 0 .008-.007.028-.014.055-.035.083-.05.007 0 .014-.006.021-.006.028-.014.063-.028.097-.042.035-.014.07-.027.098-.041.007 0 .013-.007.02-.007.028-.007.056-.021.084-.028.007 0 .02-.007.028-.007.034-.007.062-.014.097-.02h.007l.104-.022c.007 0 .02 0 .028-.007.028 0 .055-.007.083-.007h.035c.035 0 .07-.007.111-.007h.09c.028 0 .05 0 .077.007h.014c.055.007.111.014.167.028a1.766 1.766 0 0 1 1.396 1.723zM10.043 1.39h10.93l-2.509 7.4c-.104.02-.208.055-.312.09l-2.64-5.385-2.648 5.35c-.104-.034-.216-.055-.327-.076l-2.494-7.38zm4.968 9.825a3.083 3.083 0 0 0-.938-1.668l1.438-2.904 1.452 2.967c-.43.43-.743.98-.868 1.605H15.01zm-3.481-1.098c.034-.007.062-.014.097-.02h.02c.029-.008.056-.008.084-.015h.028c.028 0 .049-.007.076-.007h.271c.028 0 .049.007.07.007.014 0 .02 0 .035.007.027.007.048.007.076.014.007 0 .014 0 .028.007l.097.02h.007c.028.008.056.015.083.029.007 0 .014.007.028.007.021.007.049.014.07.027.007 0 .014.007.02.007.028.014.056.021.084.035h.007a.374.374 0 0 1 .09.049h.007c.028.014.056.034.084.048.007 0 .007.007.013.007.028.014.05.035.077.049l.007.007c.083.062.16.132.236.201l.007.007a1.747 1.747 0 0 1 .48 1.209 1.752 1.752 0 0 1-3.502 0 1.742 1.742 0 0 1 1.32-1.695zm-6.838-.049c.966 0 1.751.786 1.751 1.751s-.785 1.751-1.75 1.751-1.752-.785-1.752-1.75.786-1.752 1.751-1.752zm16.163 6.025a3.07 3.07 0 0 1-1.508 2.133c-.758.438-1.689.577-2.669.716a17.29 17.29 0 0 0-1.64.291c-1.445.355-2.834 1.05-4.182 1.717-1.724.854-3.35 1.66-4.857 1.66a3.645 3.645 0 0 1-2.154-.688c-1.529-1.056-1.453-3.036-1.272-4.12.167-1.015.632-1.966 1.077-2.877.028-.055.049-.104.077-.16.152.056.312.098.479.126-.264 1.473.486 2.994 1.946 3.745l.264.139.284-.104c1.216-.431 2.342-1.133 3.336-2.071a9.334 9.334 0 0 0 1.445-1.716c.16.027.32.034.48.034a3.117 3.117 0 0 0 3.008-2.327h1.167a3.109 3.109 0 0 0 3.01 2.327c.576 0 1.11-.16 1.57-.43.18.52.236 1.063.139 1.605z"></path>
  </symbol>
  <symbol id="codecov-icon">
    <path d="M12.007.48C5.391.485.005 5.831 0 12.399v.03l2.042 1.191.028-.019a5.821 5.821 0 0 1 3.308-1.02c.371 0 .734.034 1.086.1l-.036-.006a5.69 5.69 0 0 1 2.874 1.431l-.004-.003.35.326.198-.434c.192-.42.414-.814.66-1.173.099-.144.208-.29.332-.446l.205-.257-.252-.211a8.33 8.33 0 0 0-3.836-1.807l-.052-.008a8.566 8.566 0 0 0-4.081.251l.061-.016c.971-4.257 4.714-7.224 9.133-7.227a9.31 9.31 0 0 1 6.601 2.713 9.197 9.197 0 0 1 2.508 4.499 8.386 8.386 0 0 0-2.498-.379h-.154c-.356.006-.7.033-1.037.078l.045-.005-.042.006a8.104 8.104 0 0 0-.39.06c-.057.01-.114.022-.17.033a8.103 8.103 0 0 0-.392.089l-.138.035a9.21 9.21 0 0 0-.483.144l-.029.01c-.355.12-.709.268-1.051.439l-.027.014c-.152.076-.305.16-.469.256l-.036.022a8.217 8.217 0 0 0-2.108 1.801l-.011.013-.075.092a8.346 8.346 0 0 0-.378.503c-.088.13-.177.269-.288.452l-.06.104a8.986 8.986 0 0 0-.234.432l-.016.029c-.17.341-.317.698-.44 1.063l-.017.053a8.053 8.053 0 0 0-.411 2.717v-.007l.001.112c.006.158.013.295.023.431l-.002-.037a11.677 11.677 0 0 0 .042.412l.005.042.013.103c.018.127.038.252.062.378.241 1.266.845 2.532 1.745 3.66l.041.051.042-.05c.359-.424 1.249-1.77 1.325-2.577l.001-.015-.007-.013a5.56 5.56 0 0 1-.64-2.595v-.001c0-3.016 2.371-5.521 5.397-5.702l.199-.007a5.93 5.93 0 0 1 3.47 1.025l.028.019 2.041-1.187v-.03a11.771 11.771 0 0 0-3.511-8.424A11.963 11.963 0 0 0 12.008.48z"></path>
  </symbol>
  <symbol id="git-icon">
    <path d="M23.546 10.93L13.067.452c-.604-.603-1.582-.603-2.188 0L8.708 2.627l2.76 2.76c.645-.215 1.379-.07 1.889.441.516.515.658 1.258.438 1.9l2.658 2.66c.645-.223 1.387-.078 1.9.435.721.72.721 1.884 0 2.604-.719.719-1.881.719-2.6 0-.539-.541-.674-1.337-.404-1.996L12.86 8.955v6.525c.176.086.342.203.488.348.713.721.713 1.883 0 2.6-.719.721-1.889.721-2.609 0-.719-.719-.719-1.879 0-2.598.182-.18.387-.316.605-.406V8.835c-.217-.091-.424-.222-.6-.401-.545-.545-.676-1.342-.396-2.009L7.636 3.7.45 10.881c-.6.605-.6 1.584 0 2.189l10.48 10.477c.604.604 1.582.604 2.186 0l10.43-10.43c.605-.603.605-1.582 0-2.187"></path>
  </symbol>
  <symbol id="travis-icon">
    <path d="M20.07 9.29v-.02c.01-.04.14-.95-.08-2.24a.16.16 0 0 0-.11-.13l-.35-.1c-.08-2.71-1.2-4-1.23-4.03 1 1.6.99 3.51.97 3.96L17.1 6.1h-.04a.2.2 0 0 0-.04 0h-.03l-.01.01-.03.02-.01.01-.15.14a8.99 8.99 0 0 0-1-4.47c.03.06.8 2.33.53 4.87a3.7 3.7 0 0 1-.26.2.17.17 0 0 0-.07.13 3.9 3.9 0 0 1-.4 1.55 39.29 39.29 0 0 0-5.35 0l-.01-.04a3.88 3.88 0 0 1-.38-1.5c0-.06-.02-.1-.07-.14a3.92 3.92 0 0 1-.27-.2c-.26-2.54.51-4.81.53-4.87a9 9 0 0 0-.99 4.47l-.15-.14-.01-.01-.03-.02-.03-.01h-.04-.04l-2.18.62a7.45 7.45 0 0 1 .97-3.96c-.03.04-1.15 1.32-1.23 4.03l-.35.1a.16.16 0 0 0-.11.13c-.22 1.3-.1 2.2-.09 2.24v.02l-.08.02a5 5 0 0 0-.96.4c.16-.06.32-.1.5-.15a16.12 16.12 0 0 1 2.55-.38l1.02-.08c1.38-.08 2.75-.1 4.13-.1a67.74 67.74 0 0 1 5.16.18 21.88 21.88 0 0 1 2.55.38c.17.04.33.09.5.15a4.9 4.9 0 0 0-.97-.4l-.09-.02zM8.76 8.7a22.58 22.58 0 0 0-2.68.5c-.02-.15-.1-.94.07-2.02l2.46-.7a7.31 7.31 0 0 0 .22 2.22h-.07zm.37-.04v-.08a7 7 0 0 1-.2-1.96c.16.15.38.34.6.5.02.22.08.87.37 1.47l-.77.07zm7.58-.08v.08a29.2 29.2 0 0 0-.77-.07c.3-.6.35-1.25.37-1.48.22-.15.44-.34.6-.5.02.44 0 1.23-.2 1.97zm3.05.62a16.19 16.19 0 0 0-2.67-.5H17l.02-.03a7.2 7.2 0 0 0 .2-2.19l2.46.7a8.1 8.1 0 0 1 .07 2.02zm-2.96 6.04c.7-.02 1.07-.23 1.42-.06 0-.02-.11-.35-.6-.29a1 1 0 0 0 .07-.5c-.07-.81-.53-1.45-1.05-1.44-.51.02-.84.7-.82 1.5.03.81.47.8.98.79zm-.2-1.77a.26.26 0 1 1 0 .53.26.26 0 0 1 0-.53zm-7.84 1.91h.32c.52 0 .94.04.94-.77-.01-.8-.37-1.46-.88-1.46-.52 0-1.02.67-.99 1.48.01.21.04.36.1.47-.46.12-.58.4-.59.41.28-.15.6-.13 1.1-.13zm.45-1.72a.26.26 0 0 1 .01.53.26.26 0 1 1-.01-.53zm14.73-5.2a4.57 4.57 0 0 0-.04-.26l-.06-.27-.02-.06-.05-.04a4.68 4.68 0 0 0-.87-.53c-.25-.11-.5-.22-.76-.31a10.8 10.8 0 0 0-3.56-4.96 9.3 9.3 0 0 0-11.33 0A10.83 10.83 0 0 0 3.7 7l-.75.31c-.3.15-.6.31-.88.53l-.05.04-.02.06a3.02 3.02 0 0 0-.1.53 6.1 6.1 0 0 0-.02 1.57 6.71 6.71 0 0 0 .47 1.78l.06.13.04.06.04.07.03.05.06.03a4 4 0 0 0 .16.08l.16.07.08.04c-.7.65-1.47 1.5-2.14 2.55L0 16.21l1.18-1.03c.02-.02 1-.87 2.66-1.84l.02.19c-.1.05-.63.32-.78.45-.26.21-.27.54-.2 1.16.03.31.15.92.31 1.48.28.97.48 1.14.65 1.18.08.02.19.03.3.03.32 0 .72-.07.99-.14.3.96.75 1.83 1.28 2.6-.03 0-.05 0-.08.02l-1.82-.85-.8-.35.47.73c.04.05.84 1.3 1.5 2.15a3.6 3.6 0 0 0 3.05 1.6c.2 0 .4 0 .6-.03l1.1-.13a7.46 7.46 0 0 0 6.6-.67c.66-.15 1.4-.33 1.76-.43l.2-.05c.51-.12 1.36-.32 1.81-1.22l1.2-2.33.36-.65-.68.3c-.04.01-.9.39-1.34.62-.02 0-.03.02-.05.03.36-.74.54-1.33.6-1.56.26.06.63.05.9.05.13 0 .27-.02.36-.04.17-.05.31-.17.57-1.16.15-.58.26-1.21.28-1.53.06-.64.04-.97-.21-1.19-.13-.1-.5-.3-.7-.4l.01-.07.15.03.18-.65a7.02 7.02 0 0 1 .51-.21l.16-.07.16-.08.06-.03.03-.05.05-.07.03-.06.06-.13a4.09 4.09 0 0 0 .28-.75 6.24 6.24 0 0 0 .17-2.6zM3.68 11.27a27 27 0 0 1 .85-.17c-.26.17-.5.36-.75.55l-.1-.38zm5.9-.28c-.36.25-.76.57-1.15.96-.87.09-1.73.2-2.59.34 1.1-.51 2.37-.98 3.74-1.3zm-1.61 1.46c-.13.15-.24.3-.36.47l-.68.97 1-.66s.64-.43 1.67-.93a46 46 0 0 1 4.26-.12c-.2.16-.41.32-.63.45l-.73.44c-.46.06-.86.17-.88.18a.1.1 0 0 0-.04.01.17.17 0 0 0-.07.1l-.75 2.45-3.98.89-1.26-.88-.36-2.96c.71-.13 1.66-.28 2.8-.4zm5.4.6c.07-.01 1.45-.18 3.08-.74 1.82.14 3.3.36 4.31.54l-.36 2.52-1.26.88-3.98-.45-.74-2.44a.16.16 0 0 0-.11-.11c-.03-.01-.52-.15-1.04-.2h.1zm1.92-2.34c-.23.3-.55.67-.94 1.03a46.5 46.5 0 0 0-3.59.04 17.64 17.64 0 0 1 4.65-1.23l-.12.16zM3.97 17.36c-.2-.2-.56-1.55-.64-2.27-.06-.58-.02-.71.04-.76.07-.06.33-.2.55-.33l.3 2.46c0 .04.03.09.07.11l.62.44.08.25c-.26.07-.78.15-1.02.1zm10.04 4.66l-.38.05h-.27l.23-.51.43.46zm-.71 1.5a5.95 5.95 0 0 1-1.98-.22l.14-.02c.06 0 1.23-.16 1.76-.94h.18l.25-.01c.2-.02.39-.05.58-.09l.06.06c.4.4.9.62 1.43.66-.77.31-1.6.5-2.42.55zm7.29-6.38c-.23.75-.5 1.4-.81 2h-.22c-.24 0-.48-.02-.75-.04l-1.43-.15-1.46-1.16-.06-.05a.6.6 0 0 0-.45-.18c-.2 0-.51.08-1.26.3.39-.29.4-.66.4-.66s-.56.51-1.44.62c-.89.12-1.58-.42-1.58-.42.03.09.07.3.27.48a6.6 6.6 0 0 0-1.05-.04c-.54.03-1.3.86-1.85 1.69l-2.04.62c-.9-1.23-1.34-2.5-1.38-2.63l-.05-.15.23.16.56.4.2.13c.02.02.05.03.09.03h.04l5.2-1.17c.07 0 .11-.05.13-.1l.74-2.46a2.45 2.45 0 0 1 .68 0l.76 2.53c.02.06.08.1.15.11l.35.04 4.89.56c.04 0 .08 0 .12-.03l.49-.34.45-.32.17-.12-.09.35zm-1.16.12l-5.08-.58-.76-2.51a.17.17 0 0 0-.13-.12 3.34 3.34 0 0 0-.5-.05c-.14 0-.3.02-.5.05a.17.17 0 0 0-.12.12l-.75 2.45-5.04 1.12-2-1.4-.4-3.18.26-.15.42-.08.37 3c0 .05.03.1.07.12l1.38.96c.02.02.06.03.09.03h.04l4.15-.92.04-.02a.16.16 0 0 0 .08-.1l.75-2.46c.2-.05.7-.17 1.16-.17.45 0 .96.12 1.17.17l.74 2.46c.02.07.08.11.14.12l4.15.47c.04 0 .08 0 .12-.03l1.37-.96a.17.17 0 0 0 .07-.11l.37-2.58.69.15-.41 2.84-1.95 1.36zm3.07-3.3c.06.05.1.18.05.79a6.93 6.93 0 0 1-.57 2.25c-.21.04-.66 0-.93-.07l.1-.47.47-.33a.16.16 0 0 0 .07-.11l.34-2.34.47.28zm-.57-1.33c-.73-.16-2.33-.48-4.52-.7.72-.3 1.45-.68 2.1-1.15 1.3.18 2.26.38 2.78.5l-.36 1.35zm1.53-2.66a7.05 7.05 0 0 1-.43 1.63l-.05.1-.02.04-.07.04-.15.06-.15.07.26-.97a25.1 25.1 0 0 0-1.59-.34l.1-.02a4.3 4.3 0 0 0 .86-.32.9.9 0 0 0 .24-.19c-.96.32-2.96.17-4.73 0a48.05 48.05 0 0 0-4.87-.29c-1.64 0-3.26.12-4.88.28-1.77.19-3.76.33-4.73.01.07.08.16.14.25.19l.27.14a4.47 4.47 0 0 0 .8.23c-.87.16-1.38.3-1.44.31l.27 1.02-.02.02-.28-.13-.15-.07-.07-.04-.02-.04-.05-.1a5.3 5.3 0 0 1-.43-1.63 7.16 7.16 0 0 1 .01-1.87c.22-.18.46-.34.71-.5a16.84 16.84 0 0 1 2.21-1l.47-.16a10.27 10.27 0 0 0-1.58.38A9.47 9.47 0 0 1 12.92.55c3.8 0 7.27 2.47 8.72 6.27a12.29 12.29 0 0 0-1.57-.38 22.77 22.77 0 0 1 1.81.73c.29.13.58.28.85.44.26.14.5.3.72.49l.03.17.02.24a7.2 7.2 0 0 1-.04 1.46zm-11.6-5.55h-1.44V2.38h5.1v2.04h-1.45v-.6h-.33v2.76h.5v1.54H11.7V6.58h.5V3.82h-.33v.6z"></path>
  </symbol>
  <symbol id="prettier-icon">
    <path d="M8.571 23.429A.571.571 0 0 1 8 24H2.286a.571.571 0 0 1 0-1.143H8c.316 0 .571.256.571.572zM8 20.57H6.857a.571.571 0 0 0 0 1.143H8a.571.571 0 0 0 0-1.143zm-5.714 1.143H4.57a.571.571 0 0 0 0-1.143H2.286a.571.571 0 0 0 0 1.143zM8 18.286H2.286a.571.571 0 0 0 0 1.143H8a.571.571 0 0 0 0-1.143zM16 16H5.714a.571.571 0 0 0 0 1.143H16A.571.571 0 0 0 16 16zM2.286 17.143h1.143a.571.571 0 0 0 0-1.143H2.286a.571.571 0 0 0 0 1.143zm17.143-3.429H16a.571.571 0 0 0 0 1.143h3.429a.571.571 0 0 0 0-1.143zM9.143 14.857h4.571a.571.571 0 0 0 0-1.143H9.143a.571.571 0 0 0 0 1.143zm-6.857 0h4.571a.571.571 0 0 0 0-1.143H2.286a.571.571 0 0 0 0 1.143zM20.57 11.43H11.43a.571.571 0 0 0 0 1.142h9.142a.571.571 0 0 0 0-1.142zM9.714 12a.571.571 0 0 0-.571-.571H5.714a.571.571 0 0 0 0 1.142h3.429A.571.571 0 0 0 9.714 12zm-7.428.571h1.143a.571.571 0 0 0 0-1.142H2.286a.571.571 0 0 0 0 1.142zm19.428-3.428H16a.571.571 0 0 0 0 1.143h5.714a.571.571 0 0 0 0-1.143zM2.286 10.286H8a.571.571 0 0 0 0-1.143H2.286a.571.571 0 0 0 0 1.143zm13.143-2.857c0 .315.255.571.571.571h5.714a.571.571 0 0 0 0-1.143H16a.571.571 0 0 0-.571.572zm-8.572-.572a.571.571 0 0 0 0 1.143H8a.571.571 0 0 0 0-1.143H6.857zM2.286 8H4.57a.571.571 0 0 0 0-1.143H2.286a.571.571 0 0 0 0 1.143zm16.571-2.857c0 .315.256.571.572.571h1.142a.571.571 0 0 0 0-1.143H19.43a.571.571 0 0 0-.572.572zm-1.143 0a.571.571 0 0 0-.571-.572H12.57a.571.571 0 0 0 0 1.143h4.572a.571.571 0 0 0 .571-.571zm-15.428.571h8a.571.571 0 0 0 0-1.143h-8a.571.571 0 0 0 0 1.143zm5.143-2.857c0 .316.255.572.571.572h11.429a.571.571 0 0 0 0-1.143H8a.571.571 0 0 0-.571.571zm-5.143.572h3.428a.571.571 0 0 0 0-1.143H2.286a.571.571 0 0 0 0 1.143zm0-2.286H16A.571.571 0 0 0 16 0H2.286a.571.571 0 0 0 0 1.143z"></path>
  </symbol>
  <symbol id="eslint-icon">
    <path d="M7.257 9.132L11.816 6.5a.369.369 0 0 1 .368 0l4.559 2.632a.369.369 0 0 1 .184.32v5.263a.37.37 0 0 1-.184.319l-4.559 2.632a.369.369 0 0 1-.368 0l-4.559-2.632a.369.369 0 0 1-.184-.32V9.452a.37.37 0 0 1 .184-.32M23.852 11.53l-5.446-9.475c-.198-.343-.564-.596-.96-.596H6.555c-.396 0-.762.253-.96.596L.149 11.509a1.127 1.127 0 0 0 0 1.117l5.447 9.398c.197.342.563.517.959.517h10.893c.395 0 .76-.17.959-.512l5.446-9.413a1.069 1.069 0 0 0 0-1.086m-4.51 4.556a.4.4 0 0 1-.204.338L12.2 20.426a.395.395 0 0 1-.392 0l-6.943-4.002a.4.4 0 0 1-.205-.338V8.08c0-.14.083-.269.204-.338L11.8 3.74c.12-.07.272-.07.392 0l6.943 4.003a.4.4 0 0 1 .206.338z"></path>
  </symbol>
  <symbol id="netlify-icon">
    <path d="M16.934 8.519a1.044 1.044 0 0 1 .303.23l2.349-1.045-2.192-2.171-.491 2.954zM12.06 6.546a1.305 1.305 0 0 1 .209.574l3.497 1.482a1.044 1.044 0 0 1 .355-.177l.574-3.55-2.13-2.234-2.505 3.852v.053zm11.933 5.491l-3.748-3.748-2.548 1.044 6.264 2.662s.053.042.032.042zm-.627.606l-6.013-2.569a1.044 1.044 0 0 1-.7.407l-.647 3.957a1.044 1.044 0 0 1 .303.731l3.633.762 3.33-3.31v-.062zM15.4 9.25L12.132 7.86a1.2 1.2 0 0 1-1.044.543h-.199L8.185 12.58l7.225-3.132v.01a.887.887 0 0 1 0-.167.052.052 0 0 0-.01-.041zm3.967 7.308l-3.195-.658a1.096 1.096 0 0 1-.46.344l-.761 4.72 4.437-4.396s-.01.02-.021.02zm-4.469-.324a1.044 1.044 0 0 1-.616-.71l-5.95-1.222-.084.136 5.398 7.81.323-.324.919-5.67s.031.022.01.011zm-6.441-2.652l5.878 1.211a1.044 1.044 0 0 1 .824-.522l.637-3.894-.135-.115-7.308 3.132a1.817 1.817 0 0 1 .104.188zm-2.464.981l-.125-.125-2.537 1.044 1.232 1.222 1.399-2.172zm1.67.397a1.368 1.368 0 0 1-.563.125 1.389 1.389 0 0 1-.45-.073l-1.544 2.245 6.765 6.702 1.19-1.18zm-.95-2.641a1.702 1.702 0 0 1 .314 0 1.378 1.378 0 0 1 .344 0l2.735-4.25a1.19 1.19 0 0 1-.334-.824 1.242 1.242 0 0 1 0-.271l-3.32-1.535-2.672 2.6zm.303-7.402l3.237 1.378a1.242 1.242 0 0 1 .835-.282 1.357 1.357 0 0 1 .397.063l2.526-3.947L11.923.041 7.016 4.854s-.01.052 0 .063zm-1.21 8.164a1.566 1.566 0 0 1 .24-.334L3.278 8.613 0 11.797l5.804 1.284zm-.262.7L.533 12.735l2.203 2.235 2.777-1.18z"></path>
  </symbol>
  <symbol id="heroku-icon">
    <path d="M20.61 0H3.39C2.189 0 1.23.96 1.23 2.16v19.681c0 1.198.959 2.159 2.16 2.159h17.22c1.2 0 2.159-.961 2.159-2.159V2.16C22.77.96 21.811 0 20.61 0zm.96 21.841c0 .539-.421.96-.96.96H3.39c-.54 0-.96-.421-.96-.96V2.16c0-.54.42-.961.96-.961h17.22c.539 0 .96.421.96.961v19.681zM6.63 20.399L9.33 18l-2.7-2.4v4.799zm9.72-9.719c-.479-.48-1.379-1.08-2.879-1.08-1.621 0-3.301.421-4.5.84V3.6h-2.4v10.38l1.68-.78s2.76-1.26 5.16-1.26c1.2 0 1.5.66 1.5 1.26v7.2h2.4v-7.2c.059-.179.059-1.501-.961-2.52zM13.17 7.5h2.4c1.08-1.26 1.62-2.521 1.8-3.9h-2.399c-.241 1.379-.841 2.64-1.801 3.9z"></path>
  </symbol>
  <symbol id="postman-icon">
    <path d="M13.527.099C6.955-.744.942 3.9.099 10.473c-.843 6.572 3.8 12.584 10.373 13.428 6.573.843 12.587-3.801 13.428-10.374C24.744 6.955 20.101.943 13.527.099zm2.471 7.485a.855.855 0 0 0-.593.25l-4.453 4.453-.307-.307-.643-.643c4.389-4.376 5.18-4.418 5.996-3.753zm-4.863 4.861l4.44-4.44a.62.62 0 1 1 .847.903l-4.699 4.125-.588-.588zm.33.694l-1.1.238a.06.06 0 0 1-.067-.032.06.06 0 0 1 .01-.073l.645-.645.512.512zm-2.803-.459l1.172-1.172.879.878-1.979.426a.074.074 0 0 1-.085-.039.072.072 0 0 1 .013-.093zm-3.646 6.058a.076.076 0 0 1-.069-.083.077.077 0 0 1 .022-.046h.002l.946-.946 1.222 1.222-2.123-.147zm2.425-1.256a.228.228 0 0 0-.117.256l.203.865a.125.125 0 0 1-.211.117h-.003l-.934-.934-.294-.295 3.762-3.758 1.82-.393.874.874c-1.255 1.102-2.971 2.201-5.1 3.268zm5.279-3.428h-.002l-.839-.839 4.699-4.125a.952.952 0 0 0 .119-.127c-.148 1.345-2.029 3.245-3.977 5.091zm3.657-6.46l-.003-.002a1.822 1.822 0 0 1 2.459-2.684l-1.61 1.613a.119.119 0 0 0 0 .169l1.247 1.247a1.817 1.817 0 0 1-2.093-.343zm2.578 0a1.714 1.714 0 0 1-.271.218h-.001l-1.207-1.207 1.533-1.533c.661.72.637 1.832-.054 2.522zM18.855 6.05a.143.143 0 0 0-.053.157.416.416 0 0 1-.053.45.14.14 0 0 0 .023.197.141.141 0 0 0 .084.03.14.14 0 0 0 .106-.05.691.691 0 0 0 .087-.751.138.138 0 0 0-.194-.033z"></path>
  </symbol>
  <symbol id="figma-icon">
    <path d="M12 12a4 4 0 1 1 8 0 4 4 0 0 1-8 0zM4 20a4 4 0 0 1 4-4h4v4a4 4 0 1 1-8 0zM12 0v8h4a4 4 0 1 0 0-8h-4zM4 4a4 4 0 0 0 4 4h4V0H8a4 4 0 0 0-4 4zM4 12a4 4 0 0 0 4 4h4V8H8a4 4 0 0 0-4 4z"></path>
  </symbol>
  <symbol id="jira-icon">
    <path d="M23.323 11.33L13.001 1 12 0 4.225 7.775.67 11.33a.96.96 0 0 0 0 1.347l7.103 7.103L12 24l7.771-7.771.121-.121 3.431-3.431a.945.945 0 0 0 0-1.347zM12 15.551L8.449 12 12 8.453 15.548 12 12 15.551z"></path>
  </symbol>
  <symbol id="vercel-icon">
    <path d="M24 22.525H0L12 1.47498L24 22.525Z"/>
</symbol>
<symbol id="cypress-icon">
  <path d="M11.998 0C5.366 0 2.67047e-06 5.367 2.67047e-06 12C-0.00104915 13.5762 0.308622 15.1371 0.911306 16.5934C1.51399 18.0498 2.39786 19.3731 3.51238 20.4876C4.62689 21.6021 5.95018 22.486 7.40656 23.0887C8.86294 23.6914 10.4238 24.0011 12 24C18.633 24 24 18.633 24 12C23.999 5.367 18.588 0 11.998 0ZM6.37 14.575C6.762 15.098 7.286 15.317 8.027 15.317C8.377 15.317 8.726 15.273 9.031 15.142C9.337 15.012 9.686 14.836 10.121 14.575L11.344 16.32C10.341 17.15 9.206 17.542 7.897 17.542C6.849 17.542 5.977 17.324 5.192 16.888C4.42993 16.4384 3.82137 15.7692 3.446 14.968C3.054 14.138 2.835 13.178 2.835 12.043C2.835 10.953 3.054 9.949 3.445 9.12C3.81833 8.29411 4.4262 7.59619 5.193 7.113C5.934 6.633 6.85 6.415 7.854 6.415C8.553 6.415 9.207 6.502 9.731 6.72C10.3189 6.94755 10.8644 7.27205 11.345 7.68L10.123 9.338C9.81277 9.10895 9.476 8.91823 9.12 8.77C8.815 8.64 8.422 8.596 8.072 8.596C6.589 8.596 5.847 9.73 5.847 12.042C5.804 13.222 6.022 14.05 6.371 14.574H6.37V14.575ZM18.37 17.28C17.934 18.633 17.279 19.637 16.362 20.378C15.446 21.121 14.224 21.513 12.697 21.644L12.392 19.594C13.395 19.462 14.137 19.244 14.617 18.894C14.791 18.764 15.141 18.371 15.141 18.371L11.519 6.764H14.529L16.624 15.447L18.85 6.764H21.773L18.37 17.28Z"></path>
</symbol>
<symbol id="vite-icon">
  <path d="M8.28597 10.578L8.79797 1.92098C8.80204 1.85324 8.82852 1.78878 8.87323 1.73773C8.91794 1.68668 8.97836 1.65194 9.04497 1.63898L17.377 0.00597928C17.4284 -0.00412603 17.4816 -0.000837356 17.5314 0.0155298C17.5813 0.0318969 17.626 0.0607931 17.6615 0.0994459C17.6969 0.138099 17.7218 0.185211 17.7338 0.236262C17.7458 0.287313 17.7445 0.340589 17.73 0.390979L16.172 5.79398C16.1575 5.84427 16.1562 5.89744 16.1681 5.94838C16.1801 5.99933 16.2049 6.04637 16.2402 6.08499C16.2755 6.12361 16.3202 6.15253 16.3698 6.16899C16.4195 6.18544 16.4726 6.18888 16.524 6.17898L18.912 5.71898C18.9682 5.70799 19.0263 5.71299 19.0798 5.7334C19.1333 5.75381 19.18 5.78882 19.2146 5.83445C19.2491 5.88007 19.2702 5.93449 19.2754 5.9915C19.2806 6.04852 19.2697 6.10585 19.244 6.15698L12.454 19.707L12.331 19.897C12.3045 19.94 12.2674 19.9755 12.2233 20C12.1792 20.0245 12.1295 20.0372 12.079 20.037C11.902 20.037 11.729 19.885 11.774 19.668L12.869 14.367C12.8797 14.3151 12.8768 14.2612 12.8605 14.2108C12.8442 14.1603 12.815 14.115 12.7759 14.0792C12.7368 14.0434 12.689 14.0184 12.6373 14.0066C12.5856 13.9948 12.5317 13.9967 12.481 14.012L11.048 14.447C10.9972 14.4624 10.9434 14.4644 10.8916 14.4528C10.8399 14.4412 10.792 14.4163 10.7528 14.3806C10.7136 14.3449 10.6843 14.2996 10.6679 14.2492C10.6514 14.1988 10.6483 14.1449 10.659 14.093L11.349 10.718C11.3594 10.6676 11.357 10.6154 11.3419 10.5662C11.3269 10.517 11.2996 10.4723 11.2627 10.4365C11.2259 10.4006 11.1805 10.3746 11.1309 10.3608C11.0813 10.3471 11.0291 10.3461 10.979 10.358L8.65897 10.894C8.61267 10.9046 8.56452 10.9043 8.51835 10.8931C8.47218 10.8819 8.42925 10.8601 8.39296 10.8295C8.35667 10.7988 8.32802 10.7601 8.30928 10.7165C8.29053 10.6728 8.28221 10.6254 8.28497 10.578H8.28597ZM23.262 2.65198L17.284 3.73998L16.74 5.62698L18.817 5.22698C18.9779 5.19489 19.1449 5.21309 19.2951 5.2791C19.4454 5.34511 19.5717 5.45574 19.657 5.59598C19.7293 5.71261 19.7705 5.8459 19.7764 5.98303C19.7824 6.12016 19.7529 6.25651 19.691 6.37898L12.9 19.93L12.887 19.955L12.872 19.978L12.75 20.168C12.6779 20.2809 12.5785 20.374 12.4611 20.4387C12.3437 20.5033 12.212 20.5374 12.078 20.538C11.9566 20.5373 11.8369 20.5099 11.7273 20.4577C11.6177 20.4055 11.521 20.3298 11.444 20.236C11.3691 20.1433 11.3158 20.035 11.2882 19.9191C11.2605 19.8032 11.259 19.6825 11.284 19.566L12.313 14.585L11.193 14.925C11.0398 14.9711 10.8763 14.9709 10.7233 14.9242C10.5702 14.8776 10.4344 14.7867 10.333 14.663C10.2573 14.5706 10.2033 14.4625 10.1747 14.3466C10.1462 14.2307 10.1439 14.1099 10.168 13.993L10.798 10.913L8.77097 11.381C8.63375 11.4124 8.4907 11.4074 8.356 11.3666C8.22129 11.3257 8.09959 11.2504 8.00297 11.148C7.92806 11.0679 7.87021 10.9734 7.8329 10.8702C7.7956 10.7671 7.77964 10.6575 7.78597 10.548L8.17497 3.97798L0.73497 2.64798C0.620338 2.62729 0.502184 2.63975 0.394387 2.68389C0.28659 2.72802 0.193627 2.80201 0.12642 2.89715C0.0592136 2.99229 0.0205538 3.10463 0.0149828 3.22098C0.00941167 3.33733 0.0371606 3.45285 0.0949698 3.55398L11.58 23.691C11.6336 23.7852 11.7114 23.8635 11.8052 23.9179C11.8991 23.9722 12.0057 24.0006 12.1141 24.0002C12.2226 23.9998 12.329 23.9706 12.4224 23.9156C12.5159 23.8605 12.593 23.7816 12.646 23.687L23.906 3.55198C23.9624 3.45067 23.9889 3.33541 23.9824 3.21963C23.9758 3.10385 23.9365 2.9923 23.869 2.89799C23.8016 2.80368 23.7087 2.73048 23.6012 2.68693C23.4937 2.64338 23.3761 2.63125 23.262 2.65198V2.65198Z"/>
</symbol>
<symbol id="slack-icon">
  <path d="M5.042 15.165C5.04068 15.8332 4.77485 16.4737 4.30263 16.9465C3.83041 17.4193 3.19021 17.6859 2.522 17.688C1.85344 17.6864 1.21273 17.4201 0.740075 16.9472C0.267423 16.4744 0.00132044 15.8336 0 15.165C0.00184946 14.4969 0.268217 13.8567 0.74084 13.3844C1.21346 12.9122 1.85388 12.6463 2.522 12.645H5.042V15.165ZM6.313 15.165C6.31485 14.497 6.58108 13.857 7.05349 13.3848C7.52589 12.9126 8.16605 12.6466 8.834 12.645C9.50195 12.6466 10.1421 12.9126 10.6145 13.3848C11.0869 13.857 11.3532 14.497 11.355 15.165V21.478C11.3534 22.1462 11.0873 22.7866 10.6149 23.2592C10.1425 23.7318 9.50222 23.9982 8.834 24C8.16578 23.9982 7.52548 23.7318 7.05307 23.2592C6.58066 22.7866 6.31458 22.1462 6.313 21.478V15.165V15.165ZM8.834 5.042C8.16613 5.04015 7.52613 4.77409 7.05378 4.30193C6.58143 3.82977 6.31511 3.18987 6.313 2.522C6.31458 1.85378 6.58066 1.21337 7.05307 0.740779C7.52548 0.268184 8.16578 0.00184841 8.834 0C9.50222 0.00184841 10.1425 0.268184 10.6149 0.740779C11.0873 1.21337 11.3534 1.85378 11.355 2.522V5.042H8.834ZM8.834 6.313C9.50204 6.31485 10.1422 6.58105 10.6146 7.05342C11.087 7.5258 11.3532 8.16596 11.355 8.834C11.3532 9.50204 11.087 10.1422 10.6146 10.6146C10.1422 11.087 9.50204 11.3532 8.834 11.355H2.522C1.85378 11.3534 1.21337 11.0873 0.740779 10.6149C0.268184 10.1425 0.00184841 9.50222 0 8.834C0.00184841 8.16578 0.268184 7.52548 0.740779 7.05307C1.21337 6.58066 1.85378 6.31458 2.522 6.313H8.834ZM18.956 8.834C18.9578 8.16578 19.2242 7.52548 19.6968 7.05307C20.1694 6.58066 20.8098 6.31458 21.478 6.313C22.1462 6.31458 22.7866 6.58066 23.2592 7.05307C23.7318 7.52548 23.9982 8.16578 24 8.834C23.9982 9.50222 23.7318 10.1425 23.2592 10.6149C22.7866 11.0873 22.1462 11.3534 21.478 11.355H18.956V8.834V8.834ZM17.688 8.834C17.6862 9.50239 17.4197 10.1428 16.9469 10.6153C16.4741 11.0877 15.8334 11.3537 15.165 11.355C14.497 11.3532 13.857 11.0869 13.3848 10.6145C12.9126 10.1421 12.6466 9.50195 12.645 8.834V2.522C12.6463 1.85388 12.9122 1.21346 13.3844 0.74084C13.8567 0.268217 14.4969 0.00184946 15.165 0C15.8336 0.00132044 16.4744 0.267423 16.9472 0.740075C17.4201 1.21273 17.6864 1.85344 17.688 2.522V8.834ZM15.165 18.956C15.8336 18.9573 16.4744 19.2234 16.9472 19.6961C17.4201 20.1687 17.6864 20.8094 17.688 21.478C17.6864 22.1466 17.4201 22.7873 16.9472 23.2599C16.4744 23.7326 15.8336 23.9987 15.165 24C14.4969 23.9982 13.8567 23.7318 13.3844 23.2592C12.9122 22.7865 12.6463 22.1461 12.645 21.478V18.956H15.165V18.956ZM15.165 17.688C14.4967 17.6861 13.8564 17.4196 13.3841 16.9468C12.9118 16.474 12.6461 15.8333 12.645 15.165C12.6466 14.4971 12.9126 13.8571 13.3848 13.3848C13.8571 12.9126 14.4971 12.6466 15.165 12.645H21.478C22.1461 12.6463 22.7865 12.9122 23.2592 13.3844C23.7318 13.8567 23.9982 14.4969 24 15.165C23.9987 15.8336 23.7326 16.4744 23.2599 16.9472C22.7873 17.4201 22.1466 17.6864 21.478 17.688H15.165V17.688Z"/>
</symbol>
</svg> 